<?xml version="1.0" encoding="utf-8"?>
<!-- Generator: Adobe Illustrator 26.0.1, SVG Export Plug-In . SVG Version: 6.00 Build 0)  -->
<svg version="1.1" id="Layer_1" xmlns="http://www.w3.org/2000/svg" xmlns:xlink="http://www.w3.org/1999/xlink" x="0px" y="0px"
	 viewBox="0 0 1111 1111" style="enable-background:new 0 0 1111 1111;" xml:space="preserve">
<style type="text/css">
	.st0{fill:#561313;}
</style>
<g>
	<path class="st0" d="M316.64,448.29c-2.25-0.33-3.77-0.67-5.31-0.74c-5.86-0.27-11.75-0.18-17.58-0.71
		c-16.28-1.46-32.03-5.43-47.24-11.29c-14.8-5.7-27.51-14.87-39.81-24.76c-14.82-11.93-27.39-25.92-38.11-41.48
		c-16.39-23.78-28.01-49.57-31.92-78.55c-2.2-16.34-2.74-32.67-0.99-49c0.88-8.24,2.96-16.36,4.52-24.53
		c0.07-0.37,0.39-0.7,0.9-1.57c1.09,0.38,2.41,0.56,3.39,1.23c12.31,8.57,24.52,17.31,36.87,25.82
		c11.49,7.91,23.86,14.29,36.23,20.69c18.41,9.52,37.19,18.43,54.17,30.5c9.8,6.96,19.38,14.25,27.87,22.78
		c14.44,14.51,24.43,31.72,30.19,51.36c4.64,15.83,6.73,32.03,6.51,48.52c-0.03,2.03-0.41,4.06-0.59,6.1
		c-0.1,1.13-0.13,2.27-0.2,3.55c2.43,0.17,3.09-1.23,3.78-2.52c8.4-15.6,19.95-28.59,33.27-40.1
		c11.61-10.03,24.08-18.89,37.61-26.09c8.52-4.54,17.5-8.27,26.44-11.97c9.34-3.87,19.03-6.7,28.89-9.06
		c22.05-5.27,44.36-7.68,67.01-7.02c18.65,0.54,37.05-1.79,55.42-4.61c15.65-2.4,31.35-4.46,47.03-6.63
		c5.54-0.77,11.09-1.53,16.66-2.07c4.33-0.41,6.72-2.39,8.13-6.68c2.38-7.24,5.28-14.33,8.37-21.29c1.42-3.19,3.56-6.16,5.8-8.86
		c4.86-5.86,11.22-6.79,18.21-4.65c8.65,2.65,16.29,7.24,22.66,13.53c7.27,7.19,13.96,14.95,20.86,22.5
		c1.02,1.12,1.78,2.51,4.16,1.8c1.04-1.74,2.26-3.84,3.53-5.9c2.44-3.95,4.77-7.97,7.42-11.77c1.54-2.22,3.42-4.28,5.47-6.05
		c3.21-2.77,5.73-2.52,8.5,0.66c1.42,1.63,2.6,3.49,3.77,5.33c4.45,6.98,6.8,14.9,9.42,22.62c3.46,10.18,8.23,19.59,14.23,28.45
		c5.89,8.7,11.94,17.31,17.57,26.17c5.35,8.42,9.59,17.43,13.13,26.8c3.18,8.42,6.62,16.74,10.16,25.02c1.11,2.6,2.78,5,4.44,7.32
		c3.88,5.44,8.04,10.68,11.79,16.2c1.51,2.21,2.54,4.87,3.28,7.46c1.7,6.01,0.47,11.65-3.06,16.74
		c-5.1,7.37-12.26,11.86-20.62,14.72c-16.72,5.71-33.61,4.95-50.55,1.38c-11.35-2.39-22.58-5.34-33.95-7.63
		c-14.64-2.94-29.07-1.85-43.13,3.35c-3.37,1.25-5.39,3.5-5.82,7.18c-0.93,7.96-0.62,15.84,1.57,23.55
		c1.6,5.63,3.52,11.17,5.52,16.68c2.91,7.98,8.52,13.88,15.14,18.92c7.19,5.48,15.01,9.92,22.98,14.15
		c5.18,2.75,10.3,5.63,15.3,8.68c11.06,6.76,20.05,15.95,28.92,25.23c2.64,2.76,5.23,5.6,7.54,8.63c1.54,2.03,2.91,4.35,3.72,6.75
		c1.84,5.44-0.41,11.42-5.17,14.85c-4.11,2.96-9.92,2.87-14.5-0.72c-2.99-2.34-5.8-5.02-8.22-7.94
		c-9.51-11.49-21.17-19.91-34.83-25.85c-10.93-4.75-22.19-8.41-33.61-11.68c-11.67-3.35-23.41-6.53-34.99-10.18
		c-22.47-7.08-41.8-19.41-57.94-36.47c-11.09-11.72-20.72-24.66-28.61-38.8c-4.19-7.5-8.11-15.15-12.21-22.71
		c-1.15-2.12-2.49-4.15-4.43-6.06c-0.08,0.67-0.35,1.39-0.21,2.01c2.8,12.57,6.76,24.75,12.61,36.25c2.22,4.37,4.82,8.54,7.19,12.84
		c0.54,0.98,0.83,2.09,1.55,3.93c-23.46-2.8-46.12-4.4-68.89-2.87c-22.77,1.53-45.15,5.63-67.13,10.35
		c-1.6-1.33-1.21-2.49-0.63-3.63c5.1-9.98,9.48-20.26,12.9-30.94c1.37-4.29,2.48-8.66,3.75-12.98c0.5-1.69,1.18-3.33,1.67-5.03
		c0.23-0.8,0.19-1.67,0.3-2.66c-2.43-0.11-2.89,1.55-3.45,2.8c-6.5,14.48-14.35,28.24-22.95,41.54
		c-9.72,15.03-20.17,29.51-33.53,41.68c-14.19,12.92-30.59,21.81-48.68,27.84c-14.38,4.79-29.21,6.72-44.31,7.08
		c-8.33,0.2-16.65,0.65-24.97,0.85c-2.99,0.07-4.84,1.74-6.31,3.93c-2.05,3.06-3.93,6.24-5.79,9.42
		c-8.24,14.12-18.73,26.17-32.44,35.24c-5.03,3.33-10.38,6.09-16.17,7.83c-5.37,1.61-10.66,2.15-15.67-1.44
		c-7.71-5.52-8.44-16.09-1.16-22.17c5.34-4.45,11-8.51,16.46-12.82c9.31-7.34,16.41-16.45,20.69-27.5
		c2.16-5.57,3.42-11.5,5.06-17.27c0.3-1.05,0.49-2.13,0.72-3.2c2.02-9.52,7.62-15.9,16.45-20.03c5.65-2.64,10.91-6.17,16.15-9.59
		c8.57-5.59,13.78-13.9,17.51-23.15c4.41-10.95,6.74-22.45,8.41-34.11c0.91-6.35,2.29-12.62,3.41-18.94
		C314.98,458.29,315.72,453.73,316.64,448.29z M809.45,406.13c0.37-0.33,0.73-0.66,1.1-0.99c-0.64-1.1-1.21-2.25-1.93-3.3
		c-2.64-3.81-5.21-7.68-8.03-11.35c-2.57-3.35-5.15-6.76-8.19-9.66c-11.12-10.63-24.21-14.14-39.24-10.35
		c-7.78,1.96-14.66,5.9-21.6,9.66c-9.13,4.94-18.17,10.05-28.02,13.41c-15.57,5.31-31.55,8.7-48.01,9.66
		c-1.26,0.07-2.5,0.53-4.46,0.97c1.11,1.56,1.72,2.55,2.45,3.45c1.12,1.37,2.35,2.66,3.49,4.01c5.34,6.38,10.5,12.92,16.04,19.12
		c11.62,13,26.48,20.32,43.32,23.94c0.88,0.19,1.9-0.23,3.84-0.51c-1.78-1.9-2.76-3.14-3.92-4.17
		c-7.08-6.25-13.58-13.04-19.41-20.47c-0.96-1.22-1.98-2.32-0.88-4.21c0.42-0.19,1-0.62,1.63-0.71c7.81-1.11,15.01-4.04,21.96-7.57
		c9.49-4.81,18.89-9.8,28.27-14.83c7.71-4.13,15.44-8.15,24.17-9.78c8.7-1.63,17.15-1.77,24.68,3.84c2.95,2.2,5.71,4.64,8.6,6.92
		C806.65,404.24,808.07,405.15,809.45,406.13z M271.11,317.44c-0.82,0.97-1.8,1.89-2.49,3c-1.37,2.19-2.52,4.52-3.87,6.73
		c-5.11,8.37-9.88,16.99-15.5,25.01c-9.66,13.79-21.23,25.93-34.26,36.63c-1.1,0.9-1.92,2.13-3.19,3.55
		c7.51,7.83,16.04,13.49,25.28,18.74c1.32-0.93,2.57-1.69,3.68-2.62c15.98-13.41,29.68-28.88,41.34-46.16
		c4.19-6.21,8.44-12.35,11.58-19.23c1.8-3.95,1.44-6.81-1.48-9.94c-5.64-6.05-12.42-10.58-19.19-15.16
		C272.6,317.7,272,317.69,271.11,317.44z M210.29,278.61c-1.08,1.19-2.15,2.16-2.98,3.31c-6.9,9.39-14.51,18.1-24.16,24.77
		c-5.82,4.03-11.82,7.79-17.77,11.64c-3.49,2.26-3.9,3.23-2.08,7.03c2.94,6.14,5.88,12.29,9.14,18.26c1.93,3.53,3.78,7.21,7.07,10.4
		c1.11-0.66,2.22-1.11,3.05-1.86c2.82-2.58,5.48-5.32,8.29-7.9c15.62-14.34,28.16-31.06,38.42-49.55c0.82-1.48,1.58-2.89,0.21-5.37
		C223.76,286.13,217.37,282.56,210.29,278.61z M768.4,459.92c-0.07,2.52,1.57,3.12,2.99,3.89c8.75,4.77,18.13,7.4,28.02,8.48
		c6.99,0.76,13.91,0.45,20.79-0.81c4.49-0.82,8.68-2.54,12.27-5.36c4.07-3.2,4.57-6.71,2.05-11.16c-4.12-7.3-9.79-13.04-16.92-17.42
		c-6.33-3.88-10.88-3.84-17.03,0.56c-6.88,4.91-13.63,10.03-20.58,14.84C776.32,455.47,772.33,457.57,768.4,459.92z M696.75,321.42
		c1.82,1.31,3.3,2.22,4.59,3.34c3.81,3.31,7.4,6.9,11.36,10.01c3.19,2.51,6.74,4.59,10.25,6.67c1.59,0.94,3.48,1.01,4.9-0.54
		c1.32-1.45,0.84-3.11,0.04-4.59c-3.52-6.46-6.83-13.06-10.73-19.28c-3.57-5.7-8.33-10.45-14.2-13.92
		c-7.47-4.43-11.95-2.82-14.55,5.48c-1.38,4.41-2.34,8.96-3.45,13.46c-2.64,10.68-1.49,21.43-0.59,32.17
		c0.12,1.4,0.58,2.68,3.03,2.85c2.18-5.38,3.31-11.23,4.85-16.92C693.82,334.25,695.11,328.28,696.75,321.42z M316.71,394.68
		c-2.52-0.03-3.06,1.8-4.06,3.23c-7,9.97-14.23,19.72-24.97,26.11c-1.26,0.75-2.24,1.6-1.35,3.87c9.96,1.09,20.14,2.29,30.22,0.52
		C318.37,424.43,318.41,399.74,316.71,394.68z M782.91,409.76c-4.54-0.11-8.2,3.24-8.4,7.67c-0.19,4.49,3.47,8.58,7.88,8.8
		c4.45,0.22,8.61-3.81,8.73-8.47C791.23,413.71,787.28,409.86,782.91,409.76z"/>
</g>
<g>
	<path class="st0" d="M481.2,532.36c-0.56,1.8-0.74,3.15-1.37,4.24c-3.78,6.64-7.52,13.3-11.54,19.8
		c-12.12,19.61-28.58,34.54-48.84,45.51c-10,5.41-20.42,9.79-30.89,14.09c-13.67,5.62-25.2,13.95-34.75,25.24
		c-7.59,8.98-16.12,17.07-25.2,24.53c-3.81,3.14-8.04,5.69-12.89,6.95c-6.2,1.61-11.66,0.27-15.99-4.6
		c-3.48-3.91-3.77-10.32-0.38-14.33c2.18-2.57,4.71-5.02,7.51-6.87c10.78-7.12,17.57-17.35,23.12-28.63
		c1.51-3.06,2.91-6.18,4.55-9.16c2.15-3.91,5.39-6.45,9.9-7.21c10-1.67,19.65-4.67,29.19-8c9.08-3.17,17.63-7.54,25.17-13.47
		c7.5-5.88,14.71-12.19,21.65-18.72c3.85-3.62,7.09-7.95,10.23-12.23c3.56-4.83,8.26-7.12,14-8.34c7.2-1.53,14.26-3.71,21.37-5.62
		c4.08-1.1,8.15-2.25,12.24-3.31C478.92,532.1,479.62,532.29,481.2,532.36z"/>
</g>
<g>
	<path class="st0" d="M704.14,494.62c2.04-1.66,3.58-1,5.17-0.58c9.74,2.61,19.51,5.13,29.25,7.76c18.46,4.98,36.8,10.41,53.6,19.81
		c10.16,5.68,19.59,12.48,27.01,21.61c2.03,2.5,3.67,5.43,5.01,8.38c2.13,4.72,1.02,9.1-2.5,12.81c-3.68,3.89-8.1,5.79-13.27,3.44
		c-4.58-2.07-9.07-4.42-13.36-7.05c-15.09-9.28-31.53-14.06-49.09-15.38c-5.31-0.4-10.6-0.89-15.91-1.32
		c-5.23-0.42-9.23-2.81-12.27-7.13c-8.29-11.82-12.56-25.02-13.82-39.28C703.86,496.63,704.08,495.55,704.14,494.62z"/>
</g>
<g id="XMLID_00000078011852606902666350000006493145498702191019_">
	<g>
		<path class="st0" d="M771.47,734.48c-29.86,29.09-64.38,52.04-102.66,68.23c-41.04,17.35-84.64,26.15-129.59,26.15
			s-88.55-8.8-129.58-26.15c-38.47-16.28-73.15-39.37-103.12-68.68c63.62-50.94,144.35-81.41,232.19-81.41
			C626.81,652.62,707.76,683.27,771.47,734.48z"/>
	</g>
	<g>
		<path class="st0" d="M303.81,731.35c-22.59-22.59-41.57-47.94-56.72-75.62c-4.7,3.16-10,5.58-15.49,7.08
			c16.53,30.4,37.42,58.09,61.85,82.2c4.27-3.77,8.63-7.42,13.07-10.98C305.61,733.14,304.71,732.25,303.81,731.35z"/>
	</g>
	<g>
		<path class="st0" d="M539.22,146.01c-110.58,0-209.17,51.3-273.29,131.4c5.31,2.08,10.25,5.05,14.77,8.72
			c7.22-8.88,14.93-17.43,23.11-25.61c30.58-30.58,66.19-54.58,105.83-71.35c41.03-17.36,84.63-26.16,129.58-26.16
			c44.95,0,88.55,8.8,129.59,26.16c39.64,16.77,75.25,40.77,105.83,71.35c30.58,30.59,54.58,66.19,71.35,105.83
			c17.36,41.04,26.16,84.64,26.16,129.59s-8.8,88.55-26.16,129.58c-16.77,39.65-40.77,75.25-71.35,105.83
			c-1.05,1.05-2.11,2.09-3.17,3.13c4.44,3.57,8.79,7.24,13.05,11c64.58-63.47,104.63-151.83,104.63-249.54
			C889.15,302.68,732.48,146.01,539.22,146.01z"/>
	</g>
	<g>
		<path class="st0" d="M211.72,614.33c3.69-3.69,8.13-6.8,12.94-9.19c-12.16-34.99-18.37-71.62-18.37-109.21
			c0-22.51,2.23-44.68,6.62-66.37c-5.54-2.3-10.68-5.57-15.34-9.59c-5.41,24.46-8.28,49.87-8.28,75.96
			c0,42.09,7.48,82.42,21.1,119.8C210.84,615.26,211.28,614.78,211.72,614.33z"/>
	</g>
	<g>
		<path class="st0" d="M771.47,734.48c4.44,3.57,8.79,7.24,13.05,11c-63.15,62.08-149.75,100.38-245.3,100.38
			c-95.79,0-182.59-38.49-245.77-100.85c4.27-3.77,8.63-7.42,13.07-10.98c29.97,29.31,64.65,52.4,103.12,68.68
			c41.03,17.35,84.63,26.15,129.58,26.15s88.55-8.8,129.59-26.15C707.09,786.52,741.61,763.57,771.47,734.48z"/>
	</g>
</g>
<g>
	<path class="st0" d="M160.8,959.75v-47.62l-18.2,47.62h-6l-18.2-47.62v47.62h-13.75v-66.03h19.27L139.6,935l15.69-41.28h19.37
		v66.03H160.8z"/>
	<path class="st0" d="M229.65,959.75l-4.07-11.19h-27.69l-4.07,11.19h-15.59l24.89-66.03h17.24l24.89,66.03H229.65z M211.73,907.78
		l-10.07,28.41h20.14L211.73,907.78z"/>
	<path class="st0" d="M285.32,959.75l-12.68-23.46h-10.07v23.46h-13.75v-66.03h30.21c13.46,0,21.79,9.01,21.79,21.28
		c0,11.58-7.26,17.92-14.23,19.6l14.62,25.15H285.32z M286.68,914.91c0-5.44-4.16-8.81-9.59-8.81h-14.53v17.82h14.53
		C282.52,923.92,286.68,920.55,286.68,914.91z"/>
	<path class="st0" d="M305.56,926.79c0-19.9,14.23-34.15,33.79-34.15c19.46,0,33.7,14.26,33.7,34.15s-14.23,34.15-33.7,34.15
		C319.79,960.94,305.56,946.69,305.56,926.79z M358.91,926.79c0-12.38-7.65-21.68-19.56-21.68c-12.01,0-19.66,9.31-19.66,21.68
		c0,12.28,7.65,21.68,19.66,21.68C351.26,948.47,358.91,939.06,358.91,926.79z"/>
	<path class="st0" d="M377.21,926.79c0-19.9,14.23-34.15,33.79-34.15c19.46,0,33.7,14.26,33.7,34.15s-14.23,34.15-33.7,34.15
		C391.45,960.94,377.21,946.69,377.21,926.79z M430.57,926.79c0-12.38-7.65-21.68-19.56-21.68c-12.01,0-19.66,9.31-19.66,21.68
		c0,12.28,7.65,21.68,19.66,21.68C422.92,948.47,430.57,939.06,430.57,926.79z"/>
	<path class="st0" d="M496.51,959.75l-30.79-43.06v43.06h-13.75v-66.03h14.14l29.92,41.48v-41.48h13.75v66.03H496.51z"/>
	<path class="st0" d="M579.1,959.75l-12.68-23.46h-10.07v23.46h-13.75v-66.03h30.21c13.46,0,21.79,9.01,21.79,21.28
		c0,11.58-7.26,17.92-14.23,19.6l14.62,25.15H579.1z M580.46,914.91c0-5.44-4.16-8.81-9.59-8.81h-14.52v17.82h14.52
		C576.29,923.92,580.46,920.55,580.46,914.91z"/>
	<path class="st0" d="M647.07,959.75l-4.07-11.19h-27.69l-4.07,11.19h-15.59l24.89-66.03h17.24l24.89,66.03H647.07z M629.16,907.78
		l-10.07,28.41h20.14L629.16,907.78z"/>
	<path class="st0" d="M659.85,926.79c0-20.39,15.01-34.15,34.47-34.15c14.14,0,22.37,7.82,26.92,16.14l-11.81,5.94
		c-2.71-5.35-8.52-9.6-15.11-9.6c-11.81,0-20.33,9.21-20.33,21.68s8.52,21.68,20.33,21.68c6.58,0,12.39-4.26,15.11-9.6l11.81,5.84
		c-4.55,8.22-12.78,16.24-26.92,16.24C674.86,960.94,659.85,947.08,659.85,926.79z"/>
	<path class="st0" d="M723.95,926.79c0-20.39,15.01-34.15,34.47-34.15c14.14,0,22.37,7.82,26.92,16.14l-11.81,5.94
		c-2.71-5.35-8.52-9.6-15.11-9.6c-11.81,0-20.33,9.21-20.33,21.68s8.52,21.68,20.33,21.68c6.58,0,12.39-4.26,15.11-9.6l11.81,5.84
		c-4.55,8.22-12.78,16.24-26.92,16.24C738.96,960.94,723.95,947.08,723.95,926.79z"/>
	<path class="st0" d="M788.05,926.79c0-19.9,14.23-34.15,33.79-34.15c19.46,0,33.7,14.26,33.7,34.15s-14.23,34.15-33.7,34.15
		C802.29,960.94,788.05,946.69,788.05,926.79z M841.41,926.79c0-12.38-7.65-21.68-19.56-21.68c-12.01,0-19.66,9.31-19.66,21.68
		c0,12.28,7.65,21.68,19.66,21.68C833.76,948.47,841.41,939.06,841.41,926.79z"/>
	<path class="st0" d="M859.71,926.79c0-19.9,14.23-34.15,33.79-34.15c19.46,0,33.7,14.26,33.7,34.15s-14.23,34.15-33.7,34.15
		C873.94,960.94,859.71,946.69,859.71,926.79z M913.06,926.79c0-12.38-7.65-21.68-19.56-21.68c-12.01,0-19.66,9.31-19.66,21.68
		c0,12.28,7.65,21.68,19.66,21.68C905.41,948.47,913.06,939.06,913.06,926.79z"/>
	<path class="st0" d="M979,959.75l-30.79-43.06v43.06h-13.75v-66.03h14.14l29.92,41.48v-41.48h13.75v66.03H979z"/>
</g>
</svg>
